# xmcd
#
# Track frame offsets:
#   150
#   12356
#   25571
#   39505
#   56938
#   75853
#
# Disc length: 1185 seconds
#
# Revision: 0
# Processed by: cddbd v1.5.1PL2 Copyright (c) Steve Scherf et al.
# Submitted via: threefifteen 2.9.0
#
DISCID=39049f06
DTITLE=Dolly Parton - Dolly
DYEAR=1900
DGENRE=Country
TTITLE0=Jolene
TTITLE1=I will always love you
TTITLE2=Coat of many colors
TTITLE3=To know him is to Love him
TTITLE4=Islands in the stream
TTITLE5=My elusive dream 
EXTD=
EXTT0=
EXTT1=
EXTT2=
EXTT3=
EXTT4=
EXTT5=
PLAYORDER=
